<?xml version="1.0" encoding="utf-8"?>
<!-- Generator: Adobe Illustrator 21.0.0, SVG Export Plug-In . SVG Version: 6.00 Build 0)  -->
<svg version="1.1" id="Layer_1" xmlns="http://www.w3.org/2000/svg" xmlns:xlink="http://www.w3.org/1999/xlink" x="0px" y="0px"
	 viewBox="0 0 504 305" style="enable-background:new 0 0 504 305;" xml:space="preserve">
<style type="text/css">
	.st0{fill:#07A9E2;}
	.st1{fill:#009DDD;}
	.st2{fill:#0284CC;}
	.st3{fill:#FF2957;}
	.st4{fill:#ED1C2E;}
	.st5{fill:#0466B5;}
	.st6{fill:#FFFFFF;}
	.st7{fill:#D1094B;}
	.st8{fill:#DCE5E5;}
</style>
<g>
	<path class="st0" d="M252,264.5c30.4-27.2,49.6-67.2,49.6-112s-19.2-84-49.6-112c-26.4-24-62.4-39.2-100.8-39.2
		C68,1.3,0,69.3,0,152.5s68,150.4,151.2,150.4C189.6,303.7,225.6,288.5,252,264.5L252,264.5z"/>
	<path class="st1" d="M0,152.5c0,83.2,68,150.4,151.2,150.4c39.2,0,74.4-14.4,100.8-39.2l0,0c30.4-27.2,49.6-67.2,49.6-112
		S282.4,68.5,252,40.5c-26.4-24-62.4-39.2-100.8-39.2"/>
	<path class="st2" d="M252,40.5c-26.4-24-62.4-39.2-100.8-39.2c-2.4,0-4.8,0-7.2,0C96.8,35.7,66.4,90.9,66.4,152.5
		s30.4,116.8,76.8,150.4c2.4,0,4.8,0,7.2,0c39.2,0,74.4-14.4,100.8-39.2c30.4-27.2,49.6-67.2,49.6-112S282.4,68.5,252,40.5z"/>
	<path class="st3" d="M353.6,1.3c-39.2,0-74.4,14.4-101.6,39.2c-5.6,4.8-10.4,10.4-15.2,16h30.4c4,4.8,8,10.4,11.2,16h-53.6
		c-3.2,5.6-6.4,10.4-8.8,16h71.2c2.4,5.6,4.8,10.4,6.4,16h-83.2c-1.6,5.6-3.2,10.4-4.8,16h92.8c2.4,10.4,3.2,20.8,3.2,32
		c0,16.8-2.4,32.8-8,48h-83.2c1.6,5.6,4,10.4,6.4,16H288c-2.4,5.6-5.6,11.2-8.8,16h-53.6c3.2,5.6,7.2,11.2,11.2,16h30.4
		c-4.8,5.6-9.6,11.2-15.2,16c27.2,24,62.4,39.2,101.6,39.2c83.2,0,150.4-67.2,150.4-150.4C504,69.3,436.8,1.3,353.6,1.3L353.6,1.3z"
		/>
	<path class="st4" d="M353.6,1.3L353.6,1.3c-39.2,0-74.4,14.4-101.6,39.2c-5.6,4.8-10.4,10.4-15.2,16h30.4c4,4.8,8,10.4,11.2,16
		h-53.6c-3.2,5.6-6.4,10.4-8.8,16h71.2c2.4,5.6,4.8,10.4,6.4,16h-83.2c-1.6,5.6-3.2,10.4-4.8,16h92.8c2.4,10.4,3.2,20.8,3.2,32
		c0,16.8-2.4,32.8-8,48h-83.2c1.6,5.6,4,10.4,6.4,16H288c-2.4,5.6-5.6,11.2-8.8,16h-53.6c3.2,5.6,7.2,11.2,11.2,16h30.4
		c-4.8,5.6-9.6,11.2-15.2,16c27.2,24,62.4,39.2,101.6,39.2c83.2,0,150.4-67.2,150.4-150.4"/>
	<path class="st5" d="M252,264.5c30.4-27.2,49.6-67.2,49.6-112s-19.2-84-49.6-112V264.5L252,264.5z"/>
	<path class="st6" d="M452,185.3c0-2.4,2.4-4.8,4.8-4.8s4.8,2.4,4.8,4.8s-2.4,4.8-4.8,4.8C454.4,190.1,452,187.7,452,185.3
		L452,185.3z M456.8,189.3c2.4,0,3.2-1.6,3.2-4s-1.6-3.2-3.2-3.2c-2.4,0-4,1.6-4,3.2S455.2,189.3,456.8,189.3L456.8,189.3z
		 M456.8,186.9H456v-4h1.6c0.8,0,0.8,0,0.8,0l0.8,0.8c0,0.8,0,0.8-0.8,0.8l0.8,1.6h-0.8l-0.8-1.6h-0.8L456.8,186.9L456.8,186.9z
		 M456.8,184.5L456.8,184.5c0.8,0,0.8,0,0.8,0s0,0,0-0.8l0,0h-0.8l0,0V184.5L456.8,184.5z"/>
	<path class="st7" d="M252,40.5c-5.6,4.8-10.4,10.4-15.2,16h30.4c4,4.8,8,10.4,11.2,16h-53.6c-3.2,5.6-6.4,10.4-8.8,16h71.2
		c2.4,5.6,4.8,10.4,6.4,16h-83.2c-1.6,5.6-3.2,10.4-4.8,16h92.8c2.4,10.4,3.2,20.8,3.2,32c0,16.8-2.4,32.8-8,48h-83.2
		c1.6,5.6,4,10.4,6.4,16H288c-2.4,5.6-5.6,11.2-8.8,16h-53.6c3.2,5.6,7.2,11.2,11.2,16h30.4c-4.8,5.6-9.6,11.2-15.2,16
		c27.2,24,62.4,39.2,101.6,39.2c2.4,0,4.8,0,7.2,0c46.4-33.6,76.8-88.8,76.8-150.4S407.2,36.5,360.8,2.9c-2.4,0-4.8,0-7.2,0
		C314.4,1.3,279.2,16.5,252,40.5z"/>
	<polygon class="st6" points="132,190.1 112.8,190.1 124,131.7 98.4,190.1 81.6,190.1 78.4,131.7 67.2,190.1 50.4,190.1 64.8,113.3 
		94.4,113.3 96,161.3 116.8,113.3 147.2,113.3 	"/>
	<g>
		<path class="st8" d="M113.6,156.5l11.2-24.8l-8.8,46.4c0.8,4,1.6,8.8,3.2,12.8H132l14.4-76.8h-28c-3.2,12-5.6,25.6-5.6,39.2
			C113.6,154.1,113.6,154.9,113.6,156.5z"/>
		<path class="st8" d="M341.6,189.3c-5.6,1.6-8.8,2.4-13.6,2.4c-9.6,0-14.4-4.8-14.4-13.6c0-1.6,0-3.2,0.8-5.6l0.8-6.4l0.8-4.8
			l8.8-47.2h18.4l-2.4,14.4h9.6l-2.4,14.4h-9.6l-4.8,25.6c0,0.8-0.8,2.4-0.8,2.4c0,3.2,2.4,4.8,6.4,4.8c2.4,0,4,0,4.8-0.8
			L341.6,189.3L341.6,189.3z"/>
		<path class="st8" d="M396.8,128.5c-1.6-0.8-1.6-0.8-2.4-0.8s-1.6,0-1.6-0.8c-0.8,0-0.8,0-2.4,0c-6.4,0-10.4,2.4-16,10.4l1.6-9.6
			h-16.8L348,190.1h19.2c6.4-38.4,9.6-44.8,18.4-44.8c0.8,0,1.6,0,2.4,0l2.4,0.8L396.8,128.5L396.8,128.5z"/>
		<path class="st8" d="M267.2,147.7c0,8,4.8,13.6,14.4,16.8c8,3.2,8.8,4,8.8,7.2c0,4-3.2,5.6-11.2,5.6c-5.6,0-11.2-0.8-16.8-2.4
			l-2.4,14.4h0.8l3.2,0.8c0.8,0,3.2,0,4.8,0c4.8,0.8,8,0.8,10.4,0.8c20,0,29.6-6.4,29.6-20.8c0-8.8-4-13.6-13.6-17.6
			c-8-3.2-8.8-4-8.8-6.4c0-3.2,3.2-4.8,9.6-4.8c3.2,0,8.8,0,13.6,0.8l2.4-14.4c-4.8-0.8-12-0.8-16.8-0.8
			C274.4,126.9,267.2,136.5,267.2,147.7L267.2,147.7z"/>
		<path class="st8" d="M192.8,190.1h-15.2v-6.4c-4.8,4.8-11.2,7.2-20,7.2c-10.4,0-16.8-7.2-16.8-16.8c0-15.2,12-24,32.8-24
			c2.4,0,4.8,0,8,0c0.8-2.4,0.8-3.2,0.8-4c0-4-3.2-5.6-12-5.6c-5.6,0-11.2,0.8-15.2,1.6l-2.4,0.8h-1.6l2.4-13.6
			c9.6-2.4,15.2-3.2,22.4-3.2c16,0,24.8,6.4,24.8,18.4c0,3.2,0,5.6-1.6,12.8l-4,22.4l-0.8,4l-0.8,3.2v2.4L192.8,190.1L192.8,190.1z
			 M179.2,162.1c-2.4,0-3.2,0-4,0c-10.4,0-16,3.2-16,9.6c0,4,2.4,6.4,6.4,6.4C173.6,178.1,179.2,171.7,179.2,162.1L179.2,162.1z"/>
		<path class="st8" d="M254.4,188.5c-6.4,1.6-12.8,2.4-19.2,2.4c-20.8,0-32-9.6-32-28c0-21.6,13.6-36.8,32.8-36.8
			c15.2,0,24.8,8.8,24.8,22.4c0,4.8-0.8,8.8-2.4,15.2h-37.6c0,0.8,0,1.6,0,2.4c0,7.2,5.6,11.2,16,11.2c7.2,0,12.8-0.8,19.2-4
			L254.4,188.5L254.4,188.5z M244.8,151.7c0-0.8,0-2.4,0-3.2c0-4.8-3.2-8-8.8-8s-10.4,4-12,11.2H244.8L244.8,151.7z"/>
	</g>
	<g>
		<path class="st6" d="M455.2,162.1c-3.2,20.8-17.6,29.6-36.8,29.6c-20.8,0-29.6-12.8-29.6-28.8c0-21.6,14.4-36.8,36.8-36.8
			c19.2,0,29.6,12.8,29.6,28C455.2,158.1,455.2,158.1,455.2,162.1L455.2,162.1z M435.2,154.1c0-6.4-2.4-12-10.4-12
			c-9.6,0-15.2,11.2-15.2,21.6c0,8,4,13.6,10.4,13.6c4,0,12.8-5.6,14.4-15.2C435.2,158.9,435.2,156.5,435.2,154.1L435.2,154.1z"/>
		<path class="st6" d="M389.6,170.1c0.8-5.6,1.6-12,1.6-17.6c0-0.8,0-1.6,0-1.6c-0.8,4-1.6,8-1.6,12.8
			C388.8,165.3,388.8,167.7,389.6,170.1z"/>
	</g>
</g>
</svg>
