<?xml version="1.0" encoding="utf-8"?>
<!-- Generator: Adobe Illustrator 21.0.0, SVG Export Plug-In . SVG Version: 6.00 Build 0)  -->
<svg version="1.1" id="Layer_1" xmlns="http://www.w3.org/2000/svg" xmlns:xlink="http://www.w3.org/1999/xlink" x="0px" y="0px"
	 viewBox="0 0 504 305" style="enable-background:new 0 0 504 305;" xml:space="preserve">
<style type="text/css">
	.st0{fill:#FFB600;}
	.st1{fill:#F7981D;}
	.st2{fill:#FF8500;}
	.st3{fill:#FF5050;}
	.st4{fill:#E52836;}
	.st5{fill:#CB2026;}
	.st6{fill:#FFFFFF;}
	.st7{fill:#DCE5E5;}
</style>
<g>
	<path class="st0" d="M504,152.5c0,83.2-67.2,151.2-151.2,151.2c-83.2,0-151.2-68-151.2-151.2l0,0C201.6,69.3,268.8,1.3,352,1.3
		C436.8,1.3,504,69.3,504,152.5L504,152.5z"/>
	<path class="st1" d="M352.8,1.3C436,1.3,504,69.3,504,152.5l0,0c0,83.2-67.2,151.2-151.2,151.2c-83.2,0-151.2-68-151.2-151.2"/>
	<path class="st2" d="M352.8,1.3C436,1.3,504,69.3,504,152.5l0,0c0,83.2-67.2,151.2-151.2,151.2"/>
	<path class="st3" d="M149.6,1.3C67.2,2.1,0,69.3,0,152.5s67.2,151.2,151.2,151.2c39.2,0,74.4-15.2,101.6-39.2l0,0l0,0
		c5.6-4.8,10.4-10.4,15.2-16h-31.2c-4-4.8-8-10.4-11.2-15.2h53.6c3.2-4.8,6.4-10.4,8.8-16h-71.2c-2.4-4.8-4.8-10.4-6.4-16h83.2
		c4.8-15.2,8-31.2,8-48c0-11.2-1.6-21.6-3.2-32h-92.8c0.8-5.6,2.4-10.4,4-16h83.2c-1.6-5.6-4-11.2-6.4-16H216
		c2.4-5.6,5.6-10.4,8.8-16h53.6c-3.2-5.6-7.2-11.2-12-16h-29.6c4.8-5.6,9.6-10.4,15.2-15.2C225.6,17.3,189.6,2.9,150.4,2.9
		C150.4,1.3,150.4,1.3,149.6,1.3z"/>
	<path class="st4" d="M0,152.5c0,83.2,67.2,151.2,151.2,151.2c39.2,0,74.4-15.2,101.6-39.2l0,0l0,0c5.6-4.8,10.4-10.4,15.2-16h-31.2
		c-4-4.8-8-10.4-11.2-15.2h53.6c3.2-4.8,6.4-10.4,8.8-16h-71.2c-2.4-4.8-4.8-10.4-6.4-16h83.2c4.8-15.2,8-31.2,8-48
		c0-11.2-1.6-21.6-3.2-32h-92.8c0.8-5.6,2.4-10.4,4-16h83.2c-1.6-5.6-4-11.2-6.4-16H216c2.4-5.6,5.6-10.4,8.8-16h53.6
		c-3.2-5.6-7.2-11.2-12-16h-29.6c4.8-5.6,9.6-10.4,15.2-15.2C225.6,17.3,189.6,2.9,150.4,2.9h-0.8"/>
	<path class="st5" d="M151.2,303.7c39.2,0,74.4-15.2,101.6-39.2l0,0l0,0c5.6-4.8,10.4-10.4,15.2-16h-31.2c-4-4.8-8-10.4-11.2-15.2
		h53.6c3.2-4.8,6.4-10.4,8.8-16h-71.2c-2.4-4.8-4.8-10.4-6.4-16h83.2c4.8-15.2,8-31.2,8-48c0-11.2-1.6-21.6-3.2-32h-92.8
		c0.8-5.6,2.4-10.4,4-16h83.2c-1.6-5.6-4-11.2-6.4-16H216c2.4-5.6,5.6-10.4,8.8-16h53.6c-3.2-5.6-7.2-11.2-12-16h-29.6
		c4.8-5.6,9.6-10.4,15.2-15.2C225.6,17.3,189.6,2.9,150.4,2.9h-0.8"/>
	<g>
		<path class="st6" d="M204.8,190.9l2.4-13.6c-0.8,0-2.4,0.8-4,0.8c-5.6,0-6.4-3.2-5.6-4.8l4.8-28h8.8l2.4-15.2h-8l1.6-9.6h-16
			c0,0-9.6,52.8-9.6,59.2c0,9.6,5.6,13.6,12.8,13.6C199.2,193.3,203.2,191.7,204.8,190.9z"/>
		<path class="st6" d="M210.4,165.3c0,22.4,15.2,28,28,28c12,0,16.8-2.4,16.8-2.4l3.2-15.2c0,0-8.8,4-16.8,4
			c-17.6,0-14.4-12.8-14.4-12.8H260c0,0,2.4-10.4,2.4-14.4c0-10.4-5.6-23.2-23.2-23.2C222.4,127.7,210.4,145.3,210.4,165.3z
			 M238.4,142.1c8.8,0,7.2,10.4,7.2,11.2H228C228,152.5,229.6,142.1,238.4,142.1z"/>
		<path class="st6" d="M340,190.9l3.2-17.6c0,0-8,4-13.6,4c-11.2,0-16-8.8-16-18.4c0-19.2,9.6-29.6,20.8-29.6c8,0,14.4,4.8,14.4,4.8
			l2.4-16.8c0,0-9.6-4-18.4-4c-18.4,0-36.8,16-36.8,46.4c0,20,9.6,33.6,28.8,33.6C331.2,193.3,340,190.9,340,190.9z"/>
		<path class="st6" d="M116.8,127.7c-11.2,0-19.2,3.2-19.2,3.2l-2.4,13.6c0,0,7.2-3.2,17.6-3.2c5.6,0,10.4,0.8,10.4,5.6
			c0,3.2-0.8,4-0.8,4s-4.8,0-7.2,0c-13.6,0-28.8,5.6-28.8,24c0,14.4,9.6,17.6,15.2,17.6c11.2,0,16-7.2,16.8-7.2l-0.8,6.4H132l6.4-44
			C138.4,128.5,122.4,127.7,116.8,127.7z M120,163.7c0,2.4-1.6,15.2-11.2,15.2c-4.8,0-6.4-4-6.4-6.4c0-4,2.4-9.6,14.4-9.6
			C119.2,163.7,120,163.7,120,163.7z"/>
		<path class="st6" d="M153.6,192.5c4,0,24,0.8,24-20.8c0-20-19.2-16-19.2-24c0-4,3.2-5.6,8.8-5.6c2.4,0,11.2,0.8,11.2,0.8l2.4-14.4
			c0,0-5.6-1.6-15.2-1.6c-12,0-24,4.8-24,20.8c0,18.4,20,16.8,20,24c0,4.8-5.6,5.6-9.6,5.6c-7.2,0-14.4-2.4-14.4-2.4l-2.4,14.4
			C136,190.9,140,192.5,153.6,192.5z"/>
		<path class="st6" d="M472.8,114.9l-3.2,21.6c0,0-6.4-8-15.2-8c-14.4,0-27.2,17.6-27.2,38.4c0,12.8,6.4,26.4,20,26.4
			c9.6,0,15.2-6.4,15.2-6.4l-0.8,5.6h16l12-76.8L472.8,114.9z M465.6,157.3c0,8.8-4,20-12.8,20c-5.6,0-8.8-4.8-8.8-12.8
			c0-12.8,5.6-20.8,12.8-20.8C462.4,143.7,465.6,147.7,465.6,157.3z"/>
		<path class="st6" d="M29.6,191.7l9.6-57.6l1.6,57.6H52l20.8-57.6L64,191.7h16.8l12.8-76.8H67.2l-16,47.2l-0.8-47.2H27.2
			l-12.8,76.8H29.6z"/>
		<path class="st6" d="M277.6,191.7c4.8-26.4,5.6-48,16.8-44c1.6-10.4,4-14.4,5.6-18.4c0,0-0.8,0-3.2,0c-7.2,0-12.8,9.6-12.8,9.6
			l1.6-8.8h-15.2L260,192.5h17.6V191.7z"/>
		<path class="st6" d="M376.8,127.7c-11.2,0-19.2,3.2-19.2,3.2l-2.4,13.6c0,0,7.2-3.2,17.6-3.2c5.6,0,10.4,0.8,10.4,5.6
			c0,3.2-0.8,4-0.8,4s-4.8,0-7.2,0c-13.6,0-28.8,5.6-28.8,24c0,14.4,9.6,17.6,15.2,17.6c11.2,0,16-7.2,16.8-7.2l-0.8,6.4H392l6.4-44
			C399.2,128.5,382.4,127.7,376.8,127.7z M380.8,163.7c0,2.4-1.6,15.2-11.2,15.2c-4.8,0-6.4-4-6.4-6.4c0-4,2.4-9.6,14.4-9.6
			C380,163.7,380,163.7,380.8,163.7z"/>
		<path class="st6" d="M412,191.7c4.8-26.4,5.6-48,16.8-44c1.6-10.4,4-14.4,5.6-18.4c0,0-0.8,0-3.2,0c-7.2,0-12.8,9.6-12.8,9.6
			l1.6-8.8h-15.2l-10.4,62.4H412V191.7z"/>
	</g>
	<g>
		<path class="st7" d="M180,179.7c0,9.6,5.6,13.6,12.8,13.6c5.6,0,10.4-1.6,12-2.4l2.4-13.6c-0.8,0-2.4,0.8-4,0.8
			c-5.6,0-6.4-3.2-5.6-4.8l4.8-28h8.8l2.4-15.2h-8l1.6-9.6"/>
		<path class="st7" d="M218.4,165.3c0,22.4,7.2,28,20,28c12,0,16.8-2.4,16.8-2.4l3.2-15.2c0,0-8.8,4-16.8,4
			c-17.6,0-14.4-12.8-14.4-12.8H260c0,0,2.4-10.4,2.4-14.4c0-10.4-5.6-23.2-23.2-23.2C222.4,127.7,218.4,145.3,218.4,165.3z
			 M238.4,142.1c8.8,0,10.4,10.4,10.4,11.2H228C228,152.5,229.6,142.1,238.4,142.1z"/>
		<path class="st7" d="M340,190.9l3.2-17.6c0,0-8,4-13.6,4c-11.2,0-16-8.8-16-18.4c0-19.2,9.6-29.6,20.8-29.6c8,0,14.4,4.8,14.4,4.8
			l2.4-16.8c0,0-9.6-4-18.4-4c-18.4,0-28.8,16-28.8,46.4c0,20,1.6,33.6,20.8,33.6C331.2,193.3,340,190.9,340,190.9z"/>
		<path class="st7" d="M95.2,145.3c0,0,7.2-3.2,17.6-3.2c5.6,0,10.4,0.8,10.4,5.6c0,3.2-0.8,4-0.8,4s-4.8,0-7.2,0
			c-13.6,0-28.8,5.6-28.8,24c0,14.4,9.6,17.6,15.2,17.6c11.2,0,16-7.2,16.8-7.2l-0.8,6.4H132l6.4-44c0-18.4-16-19.2-22.4-19.2
			 M128,163.7c0,2.4-9.6,15.2-19.2,15.2c-4.8,0-6.4-4-6.4-6.4c0-4,2.4-9.6,14.4-9.6C119.2,163.7,128,163.7,128,163.7z"/>
		<path class="st7" d="M136,190.9c0,0,4.8,1.6,18.4,1.6c4,0,24,0.8,24-20.8c0-20-19.2-16-19.2-24c0-4,3.2-5.6,8.8-5.6
			c2.4,0,11.2,0.8,11.2,0.8l2.4-14.4c0,0-5.6-1.6-15.2-1.6c-12,0-16,4.8-16,20.8c0,18.4,12,16.8,12,24c0,4.8-5.6,5.6-9.6,5.6"/>
		<path class="st7" d="M469.6,136.5c0,0-6.4-8-15.2-8c-14.4,0-19.2,17.6-19.2,38.4c0,12.8-1.6,26.4,12,26.4c9.6,0,15.2-6.4,15.2-6.4
			l-0.8,5.6h16l12-76.8 M468.8,157.3c0,8.8-7.2,20-16,20c-5.6,0-8.8-4.8-8.8-12.8c0-12.8,5.6-20.8,12.8-20.8
			C462.4,143.7,468.8,147.7,468.8,157.3z"/>
		<path class="st7" d="M29.6,191.7l9.6-57.6l1.6,57.6H52l20.8-57.6L64,191.7h16.8l12.8-76.8h-20l-22.4,47.2l-0.8-47.2h-8.8
			l-27.2,76.8H29.6z"/>
		<path class="st7" d="M260.8,191.7h16.8c4.8-26.4,5.6-48,16.8-44c1.6-10.4,4-14.4,5.6-18.4c0,0-0.8,0-3.2,0
			c-7.2,0-12.8,9.6-12.8,9.6l1.6-8.8"/>
		<path class="st7" d="M355.2,145.3c0,0,7.2-3.2,17.6-3.2c5.6,0,10.4,0.8,10.4,5.6c0,3.2-0.8,4-0.8,4s-4.8,0-7.2,0
			c-13.6,0-28.8,5.6-28.8,24c0,14.4,9.6,17.6,15.2,17.6c11.2,0,16-7.2,16.8-7.2l-0.8,6.4H392l6.4-44c0-18.4-16-19.2-22.4-19.2
			 M388,163.7c0,2.4-9.6,15.2-19.2,15.2c-4.8,0-6.4-4-6.4-6.4c0-4,2.4-9.6,14.4-9.6C380,163.7,388,163.7,388,163.7z"/>
		<path class="st7" d="M395.2,191.7H412c4.8-26.4,5.6-48,16.8-44c1.6-10.4,4-14.4,5.6-18.4c0,0-0.8,0-3.2,0
			c-7.2,0-12.8,9.6-12.8,9.6l1.6-8.8"/>
	</g>
</g>
</svg>
