<svg xmlns="http://www.w3.org/2000/svg" xmlns:xlink="http://www.w3.org/1999/xlink" version="1.1" id="Layer_1" x="0px" y="0px" width="144px" height="144px" viewBox="0 0 144 144" enable-background="new 0 0 144 144" xml:space="preserve">
<g>
	<circle fill="#FA8038" cx="72" cy="72" r="64" style="fill: #700895; opacity: .7;"/>
	<path fill="#E56D30" d="M72,8c-1.685,0-3.348,0.085-5,0.213c33.008,2.554,59,30.124,59,63.787s-25.992,61.233-59,63.787   c1.652,0.128,3.315,0.213,5,0.213c35.348,0,64-28.652,64-64S107.348,8,72,8z" style="fill: #3F0066; opacity: .4;"/>
	<g>
		<path fill="#263740" d="M47,67c-7.72,0-14-6.28-14-14s6.28-14,14-14s14,6.28,14,14S54.72,67,47,67z M47,45c-4.411,0-8,3.589-8,8    s3.589,8,8,8s8-3.589,8-8S51.411,45,47,45z" style="&#10;    fill: #F5F5F5;&#10;"/>
		<path fill="#263740" d="M97,67c-7.72,0-14-6.28-14-14s6.28-14,14-14s14,6.28,14,14S104.72,67,97,67z M97,45c-4.411,0-8,3.589-8,8    s3.589,8,8,8s8-3.589,8-8S101.411,45,97,45z" style="&#10;    fill: #F5F5F5;&#10;"/>
	</g>
	<g>
		<path fill="#263740" d="M28.501,44c-0.615,0-1.222-0.283-1.614-0.817c-0.653-0.891-0.46-2.143,0.43-2.796l15-11    c0.891-0.65,2.142-0.46,2.795,0.431c0.653,0.891,0.46,2.143-0.43,2.796l-15,11C29.326,43.874,28.912,44,28.501,44z" style="&#10;    fill: #F5F5F5;&#10;"/>
		<path fill="#263740" d="M115.498,44c0.615,0,1.223-0.283,1.615-0.817c0.652-0.891,0.46-2.143-0.431-2.796l-15-11    c-0.891-0.65-2.142-0.46-2.796,0.431c-0.652,0.891-0.46,2.143,0.431,2.796l15,11C114.674,43.874,115.088,44,115.498,44z" style="&#10;    fill: #F5F5F5;&#10;"/>
	</g>
	<path fill="#FA8038" d="M49.998,113.001c-2.288,0-4.279-1.55-4.844-3.768c-0.329-1.294-0.135-2.639,0.547-3.787   s1.771-1.963,3.065-2.292l55-14c0.405-0.104,0.823-0.155,1.239-0.155c2.285,0,4.275,1.55,4.84,3.768   c0.329,1.294,0.135,2.639-0.547,3.787c-0.683,1.148-1.771,1.963-3.066,2.292l-54.999,14   C50.83,112.948,50.414,113.001,49.998,113.001z" style="&#10;    FILL: #A244C6;&#10;"/>
	<path fill="#F5F5F5" d="M49.998,111.001c-1.339,0-2.56-0.903-2.905-2.261c-0.409-1.605,0.562-3.239,2.167-3.647l55-14   c1.611-0.41,3.239,0.562,3.647,2.167c0.409,1.605-0.562,3.239-2.167,3.647l-55,14C50.492,110.971,50.243,111.001,49.998,111.001z"/>
</g>
</svg>